<?xml version="1.0" encoding="UTF-8" standalone="no"?>
<!DOCTYPE svg PUBLIC "-//W3C//DTD SVG 1.1//EN"
 "http://www.w3.org/Graphics/SVG/1.1/DTD/svg11.dtd">
<!-- Generated by graphviz version 12.1.0 (20240811.2233)
 -->
<!-- Pages: 1 -->
<svg width="208pt" height="290pt"
 viewBox="0.00 0.00 208.34 289.50" xmlns="http://www.w3.org/2000/svg" xmlns:xlink="http://www.w3.org/1999/xlink">
<g id="graph0" class="graph" transform="scale(1 1) rotate(0) translate(4 285.5)">
<polygon fill="white" stroke="none" points="-4,4 -4,-285.5 204.34,-285.5 204.34,4 -4,4"/>
<g id="clust1" class="cluster">
<title>cluster_config_i</title>
<polygon fill="none" stroke="black" points="34.34,-156.5 34.34,-273.5 192.34,-273.5 192.34,-156.5 34.34,-156.5"/>
<text text-anchor="middle" x="161.84" y="-163.7" font-family="Times,serif" font-size="14.00">config_i</text>
</g>
<g id="clust2" class="cluster">
<title>cluster_param_i</title>
<polygon fill="none" stroke="black" points="42.34,-189 42.34,-265.5 112.34,-265.5 112.34,-189 42.34,-189"/>
<text text-anchor="middle" x="81.84" y="-196.2" font-family="Times,serif" font-size="14.00">param_i</text>
</g>
<g id="clust3" class="cluster">
<title>cluster_data</title>
<polygon fill="none" stroke="black" points="21.34,-8 21.34,-84.5 91.34,-84.5 91.34,-8 21.34,-8"/>
<text text-anchor="middle" x="72.09" y="-15.2" font-family="Times,serif" font-size="14.00">data</text>
</g>
<!-- mu -->
<g id="node1" class="node">
<title>mu</title>
<ellipse fill="white" stroke="black" stroke-dasharray="5,2" cx="103.34" cy="-130.5" rx="27" ry="18"/>
<text text-anchor="middle" x="103.34" y="-125.45" font-family="Times,serif" font-size="14.00">mu</text>
</g>
<!-- obs -->
<g id="node5" class="node">
<title>obs</title>
<ellipse fill="grey" stroke="black" cx="56.34" cy="-58.5" rx="27" ry="18"/>
<text text-anchor="middle" x="56.34" y="-53.45" font-family="Times,serif" font-size="14.00">obs</text>
</g>
<!-- mu&#45;&gt;obs -->
<g id="edge3" class="edge">
<title>mu&#45;&gt;obs</title>
<path fill="none" stroke="black" d="M92.68,-113.62C86.97,-105.11 79.8,-94.44 73.35,-84.82"/>
<polygon fill="black" stroke="black" points="76.29,-82.93 67.81,-76.58 70.48,-86.83 76.29,-82.93"/>
</g>
<!-- scale -->
<g id="node2" class="node">
<title>scale</title>
<ellipse fill="white" stroke="black" cx="29.34" cy="-130.5" rx="29.34" ry="18"/>
<text text-anchor="middle" x="29.34" y="-125.45" font-family="Times,serif" font-size="14.00">scale</text>
</g>
<!-- scale&#45;&gt;obs -->
<g id="edge4" class="edge">
<title>scale&#45;&gt;obs</title>
<path fill="none" stroke="black" d="M35.88,-112.55C38.86,-104.82 42.47,-95.46 45.83,-86.77"/>
<polygon fill="black" stroke="black" points="48.99,-88.29 49.32,-77.7 42.46,-85.77 48.99,-88.29"/>
</g>
<!-- alpha -->
<g id="node3" class="node">
<title>alpha</title>
<ellipse fill="white" stroke="black" cx="153.34" cy="-239.5" rx="30.88" ry="18"/>
<text text-anchor="middle" x="153.34" y="-234.45" font-family="Times,serif" font-size="14.00">alpha</text>
</g>
<!-- alpha&#45;&gt;mu -->
<g id="edge1" class="edge">
<title>alpha&#45;&gt;mu</title>
<path fill="none" stroke="black" d="M146.1,-221.73C139.65,-206.95 129.77,-184.66 117.03,-158.19"/>
<polygon fill="black" stroke="black" points="120.18,-156.67 112.67,-149.2 113.88,-159.73 120.18,-156.67"/>
</g>
<!-- w -->
<g id="node4" class="node">
<title>w</title>
<ellipse fill="white" stroke="black" cx="77.34" cy="-239.5" rx="27" ry="18"/>
<text text-anchor="middle" x="77.34" y="-234.45" font-family="Times,serif" font-size="14.00">w</text>
</g>
<!-- w&#45;&gt;mu -->
<g id="edge2" class="edge">
<title>w&#45;&gt;mu</title>
<path fill="none" stroke="black" d="M81.52,-221.31C85.56,-204.7 91.74,-179.24 96.5,-159.66"/>
<polygon fill="black" stroke="black" points="99.86,-160.66 98.82,-150.12 93.06,-159.01 99.86,-160.66"/>
</g>
</g>
</svg>
