<?xml version="1.0" encoding="UTF-8" standalone="no"?>
<!DOCTYPE svg PUBLIC "-//W3C//DTD SVG 1.1//EN"
 "http://www.w3.org/Graphics/SVG/1.1/DTD/svg11.dtd">
<!-- Generated by graphviz version 6.0.1 (0)
 -->
<!-- Pages: 1 -->
<svg width="685pt" height="330pt"
 viewBox="0.00 0.00 685.49 330.00" xmlns="http://www.w3.org/2000/svg" xmlns:xlink="http://www.w3.org/1999/xlink">
<g id="graph0" class="graph" transform="scale(1 1) rotate(0) translate(4 326)">
<polygon fill="white" stroke="none" points="-4,4 -4,-326 681.49,-326 681.49,4 -4,4"/>
<g id="clust1" class="cluster">
<title>cluster_location_i</title>
<polygon fill="none" stroke="black" points="299.99,-91 299.99,-166 570.99,-166 570.99,-91 299.99,-91"/>
<text text-anchor="middle" x="535.49" y="-98.8" font-family="Times,serif" font-size="14.00">location_i</text>
</g>
<g id="clust2" class="cluster">
<title>cluster_output</title>
<polygon fill="none" stroke="black" points="241.99,-8 241.99,-83 383.99,-83 383.99,-8 241.99,-8"/>
<text text-anchor="middle" x="358.49" y="-15.8" font-family="Times,serif" font-size="14.00">output</text>
</g>
<!-- beta_loc_hyper -->
<g id="node1" class="node">
<title>beta_loc_hyper</title>
<ellipse fill="white" stroke="black" cx="64.99" cy="-140" rx="64.99" ry="18"/>
<text text-anchor="middle" x="64.99" y="-136.3" font-family="Times,serif" font-size="14.00">beta_loc_hyper</text>
</g>
<!-- y -->
<g id="node8" class="node">
<title>y</title>
<ellipse fill="grey" stroke="black" cx="276.99" cy="-57" rx="27" ry="18"/>
<text text-anchor="middle" x="276.99" y="-53.3" font-family="Times,serif" font-size="14.00">y</text>
</g>
<!-- beta_loc_hyper&#45;&gt;y -->
<g id="edge4" class="edge">
<title>beta_loc_hyper&#45;&gt;y</title>
<path fill="none" stroke="black" d="M85.6,-122.89C99.88,-112.43 119.71,-99.27 138.99,-91 172.06,-76.82 212.32,-68.08 240.8,-63.19"/>
<polygon fill="black" stroke="black" points="241.42,-66.63 250.72,-61.55 240.29,-59.72 241.42,-66.63"/>
</g>
<!-- beta_scale_hyper -->
<g id="node2" class="node">
<title>beta_scale_hyper</title>
<ellipse fill="white" stroke="black" cx="218.99" cy="-140" rx="71.49" ry="18"/>
<text text-anchor="middle" x="218.99" y="-136.3" font-family="Times,serif" font-size="14.00">beta_scale_hyper</text>
</g>
<!-- beta_scale_hyper&#45;&gt;y -->
<g id="edge5" class="edge">
<title>beta_scale_hyper&#45;&gt;y</title>
<path fill="none" stroke="black" d="M231.01,-122.22C239.32,-110.62 250.49,-95.02 259.74,-82.1"/>
<polygon fill="black" stroke="black" points="262.8,-83.83 265.78,-73.66 257.11,-79.76 262.8,-83.83"/>
</g>
<!-- sigma_hyper -->
<g id="node3" class="node">
<title>sigma_hyper</title>
<ellipse fill="white" stroke="black" cx="411.99" cy="-258" rx="56.59" ry="18"/>
<text text-anchor="middle" x="411.99" y="-254.3" font-family="Times,serif" font-size="14.00">sigma_hyper</text>
</g>
<!-- sigma -->
<g id="node5" class="node">
<title>sigma</title>
<ellipse fill="white" stroke="black" cx="411.99" cy="-140" rx="32.49" ry="18"/>
<text text-anchor="middle" x="411.99" y="-136.3" font-family="Times,serif" font-size="14.00">sigma</text>
</g>
<!-- sigma_hyper&#45;&gt;sigma -->
<g id="edge1" class="edge">
<title>sigma_hyper&#45;&gt;sigma</title>
<path fill="none" stroke="black" d="M411.99,-239.88C411.99,-221.04 411.99,-190.47 411.99,-168.3"/>
<polygon fill="black" stroke="black" points="415.49,-168.19 411.99,-158.19 408.49,-168.19 415.49,-168.19"/>
</g>
<!-- beta_offset -->
<g id="node4" class="node">
<title>beta_offset</title>
<ellipse fill="white" stroke="black" cx="512.99" cy="-140" rx="50.09" ry="18"/>
<text text-anchor="middle" x="512.99" y="-136.3" font-family="Times,serif" font-size="14.00">beta_offset</text>
</g>
<!-- beta_offset&#45;&gt;y -->
<g id="edge3" class="edge">
<title>beta_offset&#45;&gt;y</title>
<path fill="none" stroke="black" d="M497.94,-122.48C486.74,-111.41 470.43,-97.68 452.99,-91 394.8,-68.7 371.91,-103.32 312.99,-83 308.95,-81.6 304.94,-79.62 301.15,-77.36"/>
<polygon fill="black" stroke="black" points="303.05,-74.42 292.79,-71.77 299.16,-80.24 303.05,-74.42"/>
</g>
<!-- sigma&#45;&gt;y -->
<g id="edge2" class="edge">
<title>sigma&#45;&gt;y</title>
<path fill="none" stroke="black" d="M402.35,-122.43C395.14,-111.64 384.26,-98.26 370.99,-91 348.16,-78.51 337.24,-92.46 312.99,-83 309.2,-81.52 305.41,-79.56 301.8,-77.39"/>
<polygon fill="black" stroke="black" points="303.53,-74.34 293.27,-71.72 299.65,-80.17 303.53,-74.34"/>
</g>
<!-- beta -->
<g id="node6" class="node">
<title>beta</title>
<ellipse fill="grey" stroke="black" cx="334.99" cy="-140" rx="27" ry="18"/>
<text text-anchor="middle" x="334.99" y="-136.3" font-family="Times,serif" font-size="14.00">beta</text>
</g>
<!-- mu -->
<g id="node7" class="node">
<title>mu</title>
<ellipse fill="grey" stroke="black" cx="348.99" cy="-57" rx="27" ry="18"/>
<text text-anchor="middle" x="348.99" y="-53.3" font-family="Times,serif" font-size="14.00">mu</text>
</g>
<!-- distribution_description_node -->
<g id="node9" class="node">
<title>distribution_description_node</title>
<text text-anchor="start" x="494.49" y="-306.8" font-family="Times,serif" font-size="14.00">beta_loc_hyper ~ Normal</text>
<text text-anchor="start" x="494.49" y="-291.8" font-family="Times,serif" font-size="14.00">beta_scale_hyper ~ HalfNormal</text>
<text text-anchor="start" x="494.49" y="-276.8" font-family="Times,serif" font-size="14.00">sigma_hyper ~ HalfNormal</text>
<text text-anchor="start" x="494.49" y="-261.8" font-family="Times,serif" font-size="14.00">beta_offset ~ Normal</text>
<text text-anchor="start" x="494.49" y="-246.8" font-family="Times,serif" font-size="14.00">sigma ~ HalfNormal</text>
<text text-anchor="start" x="494.49" y="-231.8" font-family="Times,serif" font-size="14.00">beta ~ Delta</text>
<text text-anchor="start" x="494.49" y="-216.8" font-family="Times,serif" font-size="14.00">mu ~ Delta</text>
<text text-anchor="start" x="494.49" y="-201.8" font-family="Times,serif" font-size="14.00">y ~ Normal</text>
</g>
</g>
</svg>
