<?xml version="1.0" encoding="UTF-8" standalone="no"?>
<!DOCTYPE svg PUBLIC "-//W3C//DTD SVG 1.1//EN"
 "http://www.w3.org/Graphics/SVG/1.1/DTD/svg11.dtd">
<!-- Generated by graphviz version 6.0.1 (0)
 -->
<!-- Pages: 1 -->
<svg width="396pt" height="187pt"
 viewBox="0.00 0.00 395.95 187.00" xmlns="http://www.w3.org/2000/svg" xmlns:xlink="http://www.w3.org/1999/xlink">
<g id="graph0" class="graph" transform="scale(1 1) rotate(0) translate(4 183)">
<polygon fill="white" stroke="none" points="-4,4 -4,-183 391.95,-183 391.95,4 -4,4"/>
<g id="clust1" class="cluster">
<title>cluster_plate</title>
<polygon fill="none" stroke="black" points="86.45,-8 86.45,-83 156.45,-83 156.45,-8 86.45,-8"/>
<text text-anchor="middle" x="134.95" y="-15.8" font-family="Times,serif" font-size="14.00">plate</text>
</g>
<!-- beta_0 -->
<g id="node1" class="node">
<title>beta_0</title>
<ellipse fill="white" stroke="black" cx="34.45" cy="-145" rx="34.39" ry="18"/>
<text text-anchor="middle" x="34.45" y="-141.3" font-family="Times,serif" font-size="14.00">beta_0</text>
</g>
<!-- y -->
<g id="node4" class="node">
<title>y</title>
<ellipse fill="grey" stroke="black" cx="121.45" cy="-57" rx="27" ry="18"/>
<text text-anchor="middle" x="121.45" y="-53.3" font-family="Times,serif" font-size="14.00">y</text>
</g>
<!-- beta_0&#45;&gt;y -->
<g id="edge2" class="edge">
<title>beta_0&#45;&gt;y</title>
<path fill="none" stroke="black" d="M50,-128.62C63.86,-114.92 84.29,-94.73 99.75,-79.44"/>
<polygon fill="black" stroke="black" points="102.24,-81.9 106.9,-72.38 97.32,-76.92 102.24,-81.9"/>
</g>
<!-- beta_1 -->
<g id="node2" class="node">
<title>beta_1</title>
<ellipse fill="white" stroke="black" cx="121.45" cy="-145" rx="34.39" ry="18"/>
<text text-anchor="middle" x="121.45" y="-141.3" font-family="Times,serif" font-size="14.00">beta_1</text>
</g>
<!-- beta_1&#45;&gt;y -->
<g id="edge3" class="edge">
<title>beta_1&#45;&gt;y</title>
<path fill="none" stroke="black" d="M121.45,-126.6C121.45,-114.75 121.45,-98.82 121.45,-85.29"/>
<polygon fill="black" stroke="black" points="124.95,-85.08 121.45,-75.08 117.95,-85.08 124.95,-85.08"/>
</g>
<!-- sigma -->
<g id="node3" class="node">
<title>sigma</title>
<ellipse fill="white" stroke="black" cx="206.45" cy="-145" rx="32.49" ry="18"/>
<text text-anchor="middle" x="206.45" y="-141.3" font-family="Times,serif" font-size="14.00">sigma</text>
</g>
<!-- sigma&#45;&gt;y -->
<g id="edge1" class="edge">
<title>sigma&#45;&gt;y</title>
<path fill="none" stroke="black" d="M191.25,-128.62C177.83,-115.05 158.11,-95.1 143.06,-79.86"/>
<polygon fill="black" stroke="black" points="145.18,-77.04 135.66,-72.38 140.2,-81.96 145.18,-77.04"/>
</g>
<!-- distribution_description_node -->
<g id="node5" class="node">
<title>distribution_description_node</title>
<text text-anchor="start" x="264.95" y="-163.8" font-family="Times,serif" font-size="14.00">beta_0 ~ Normal</text>
<text text-anchor="start" x="264.95" y="-148.8" font-family="Times,serif" font-size="14.00">beta_1 ~ Normal</text>
<text text-anchor="start" x="264.95" y="-133.8" font-family="Times,serif" font-size="14.00">sigma ~ HalfNormal</text>
<text text-anchor="start" x="264.95" y="-118.8" font-family="Times,serif" font-size="14.00">y ~ Normal</text>
</g>
</g>
</svg>
