<?xml version="1.0" encoding="UTF-8" standalone="no"?>
<!DOCTYPE svg PUBLIC "-//W3C//DTD SVG 1.1//EN"
 "http://www.w3.org/Graphics/SVG/1.1/DTD/svg11.dtd">
<!-- Generated by graphviz version 6.0.1 (0)
 -->
<!-- Pages: 1 -->
<svg width="438pt" height="202pt"
 viewBox="0.00 0.00 438.00 202.00" xmlns="http://www.w3.org/2000/svg" xmlns:xlink="http://www.w3.org/1999/xlink">
<g id="graph0" class="graph" transform="scale(1 1) rotate(0) translate(4 198)">
<polygon fill="white" stroke="none" points="-4,4 -4,-198 434,-198 434,4 -4,4"/>
<g id="clust1" class="cluster">
<title>cluster_plate</title>
<polygon fill="none" stroke="black" points="73.5,-8 73.5,-83 145.5,-83 145.5,-8 73.5,-8"/>
<text text-anchor="middle" x="124" y="-15.8" font-family="Times,serif" font-size="14.00">plate</text>
</g>
<!-- sigma -->
<g id="node1" class="node">
<title>sigma</title>
<ellipse fill="white" stroke="black" cx="32.5" cy="-152.5" rx="32.49" ry="18"/>
<text text-anchor="middle" x="32.5" y="-148.8" font-family="Times,serif" font-size="14.00">sigma</text>
</g>
<!-- sales -->
<g id="node5" class="node">
<title>sales</title>
<ellipse fill="grey" stroke="black" cx="109.5" cy="-57" rx="27.9" ry="18"/>
<text text-anchor="middle" x="109.5" y="-53.3" font-family="Times,serif" font-size="14.00">sales</text>
</g>
<!-- sigma&#45;&gt;sales -->
<g id="edge1" class="edge">
<title>sigma&#45;&gt;sales</title>
<path fill="none" stroke="black" d="M45.56,-135.64C57.87,-120.68 76.48,-98.1 90.45,-81.13"/>
<polygon fill="black" stroke="black" points="93.23,-83.26 96.88,-73.32 87.82,-78.81 93.23,-83.26"/>
</g>
<!-- beta -->
<g id="node2" class="node">
<title>beta</title>
<ellipse fill="white" stroke="black" cx="109.5" cy="-152.5" rx="27" ry="18"/>
<text text-anchor="middle" x="109.5" y="-148.8" font-family="Times,serif" font-size="14.00">beta</text>
</g>
<!-- beta&#45;&gt;sales -->
<g id="edge3" class="edge">
<title>beta&#45;&gt;sales</title>
<path fill="none" stroke="black" d="M109.5,-134.35C109.5,-120.64 109.5,-101.17 109.5,-85.32"/>
<polygon fill="black" stroke="black" points="113,-85.04 109.5,-75.04 106,-85.04 113,-85.04"/>
</g>
<!-- dof -->
<g id="node3" class="node">
<title>dof</title>
<ellipse fill="white" stroke="black" cx="181.5" cy="-152.5" rx="27" ry="18"/>
<text text-anchor="middle" x="181.5" y="-148.8" font-family="Times,serif" font-size="14.00">dof</text>
</g>
<!-- dof&#45;&gt;sales -->
<g id="edge2" class="edge">
<title>dof&#45;&gt;sales</title>
<path fill="none" stroke="black" d="M169.61,-136.06C158.25,-121.31 140.96,-98.86 127.83,-81.81"/>
<polygon fill="black" stroke="black" points="130.28,-79.25 121.4,-73.46 124.73,-83.52 130.28,-79.25"/>
</g>
<!-- mu -->
<g id="node4" class="node">
<title>mu</title>
<ellipse fill="grey" stroke="black" cx="253.5" cy="-152.5" rx="27" ry="18"/>
<text text-anchor="middle" x="253.5" y="-148.8" font-family="Times,serif" font-size="14.00">mu</text>
</g>
<!-- distribution_description_node -->
<g id="node6" class="node">
<title>distribution_description_node</title>
<text text-anchor="start" x="307" y="-178.8" font-family="Times,serif" font-size="14.00">sigma ~ HalfNormal</text>
<text text-anchor="start" x="307" y="-163.8" font-family="Times,serif" font-size="14.00">beta ~ Normal</text>
<text text-anchor="start" x="307" y="-148.8" font-family="Times,serif" font-size="14.00">dof ~ HalfNormal</text>
<text text-anchor="start" x="307" y="-133.8" font-family="Times,serif" font-size="14.00">mu ~ Delta</text>
<text text-anchor="start" x="307" y="-118.8" font-family="Times,serif" font-size="14.00">sales ~ StudentT</text>
</g>
</g>
</svg>
