<?xml version="1.0" encoding="UTF-8" standalone="no"?>
<!DOCTYPE svg PUBLIC "-//W3C//DTD SVG 1.1//EN"
 "http://www.w3.org/Graphics/SVG/1.1/DTD/svg11.dtd">
<!-- Generated by graphviz version 6.0.1 (0)
 -->
<!-- Pages: 1 -->
<svg width="366pt" height="285pt"
 viewBox="0.00 0.00 366.44 285.00" xmlns="http://www.w3.org/2000/svg" xmlns:xlink="http://www.w3.org/1999/xlink">
<g id="graph0" class="graph" transform="scale(1 1) rotate(0) translate(4 281)">
<polygon fill="white" stroke="none" points="-4,4 -4,-281 362.44,-281 362.44,4 -4,4"/>
<g id="clust1" class="cluster">
<title>cluster_food_cat_i</title>
<polygon fill="none" stroke="black" points="33.44,-91 33.44,-166 185.44,-166 185.44,-91 33.44,-91"/>
<text text-anchor="middle" x="148.44" y="-98.8" font-family="Times,serif" font-size="14.00">food_cat_i</text>
</g>
<g id="clust2" class="cluster">
<title>cluster_output</title>
<polygon fill="none" stroke="black" points="40.44,-8 40.44,-83 182.44,-83 182.44,-8 40.44,-8"/>
<text text-anchor="middle" x="156.94" y="-15.8" font-family="Times,serif" font-size="14.00">output</text>
</g>
<!-- sigma_hyperprior -->
<g id="node1" class="node">
<title>sigma_hyperprior</title>
<ellipse fill="white" stroke="black" cx="73.44" cy="-235.5" rx="73.39" ry="18"/>
<text text-anchor="middle" x="73.44" y="-231.8" font-family="Times,serif" font-size="14.00">sigma_hyperprior</text>
</g>
<!-- sigma -->
<g id="node3" class="node">
<title>sigma</title>
<ellipse fill="white" stroke="black" cx="73.44" cy="-140" rx="32.49" ry="18"/>
<text text-anchor="middle" x="73.44" y="-136.3" font-family="Times,serif" font-size="14.00">sigma</text>
</g>
<!-- sigma_hyperprior&#45;&gt;sigma -->
<g id="edge1" class="edge">
<title>sigma_hyperprior&#45;&gt;sigma</title>
<path fill="none" stroke="black" d="M73.44,-217.35C73.44,-203.64 73.44,-184.17 73.44,-168.32"/>
<polygon fill="black" stroke="black" points="76.94,-168.04 73.44,-158.04 69.94,-168.04 76.94,-168.04"/>
</g>
<!-- beta -->
<g id="node2" class="node">
<title>beta</title>
<ellipse fill="white" stroke="black" cx="150.44" cy="-140" rx="27" ry="18"/>
<text text-anchor="middle" x="150.44" y="-136.3" font-family="Times,serif" font-size="14.00">beta</text>
</g>
<!-- y -->
<g id="node5" class="node">
<title>y</title>
<ellipse fill="grey" stroke="black" cx="75.44" cy="-57" rx="27" ry="18"/>
<text text-anchor="middle" x="75.44" y="-53.3" font-family="Times,serif" font-size="14.00">y</text>
</g>
<!-- beta&#45;&gt;y -->
<g id="edge3" class="edge">
<title>beta&#45;&gt;y</title>
<path fill="none" stroke="black" d="M139.93,-123.17C133.15,-113.45 123.88,-101 114.44,-91 110.16,-86.45 105.27,-81.91 100.45,-77.71"/>
<polygon fill="black" stroke="black" points="102.41,-74.78 92.5,-71.03 97.9,-80.14 102.41,-74.78"/>
</g>
<!-- sigma&#45;&gt;y -->
<g id="edge2" class="edge">
<title>sigma&#45;&gt;y</title>
<path fill="none" stroke="black" d="M73.87,-121.82C74.13,-111.19 74.47,-97.31 74.77,-85.2"/>
<polygon fill="black" stroke="black" points="78.27,-85.24 75.02,-75.15 71.27,-85.06 78.27,-85.24"/>
</g>
<!-- mu -->
<g id="node4" class="node">
<title>mu</title>
<ellipse fill="grey" stroke="black" cx="147.44" cy="-57" rx="27" ry="18"/>
<text text-anchor="middle" x="147.44" y="-53.3" font-family="Times,serif" font-size="14.00">mu</text>
</g>
<!-- distribution_description_node -->
<g id="node6" class="node">
<title>distribution_description_node</title>
<text text-anchor="start" x="172.44" y="-261.8" font-family="Times,serif" font-size="14.00">sigma_hyperprior ~ HalfNormal</text>
<text text-anchor="start" x="172.44" y="-246.8" font-family="Times,serif" font-size="14.00">beta ~ Normal</text>
<text text-anchor="start" x="172.44" y="-231.8" font-family="Times,serif" font-size="14.00">sigma ~ HalfNormal</text>
<text text-anchor="start" x="172.44" y="-216.8" font-family="Times,serif" font-size="14.00">mu ~ Delta</text>
<text text-anchor="start" x="172.44" y="-201.8" font-family="Times,serif" font-size="14.00">y ~ Normal</text>
</g>
</g>
</svg>
