<?xml version="1.0" encoding="UTF-8" standalone="no"?>
<!DOCTYPE svg PUBLIC "-//W3C//DTD SVG 1.1//EN"
 "http://www.w3.org/Graphics/SVG/1.1/DTD/svg11.dtd">
<!-- Generated by graphviz version 6.0.1 (0)
 -->
<!-- Pages: 1 -->
<svg width="294pt" height="187pt"
 viewBox="0.00 0.00 294.00 187.00" xmlns="http://www.w3.org/2000/svg" xmlns:xlink="http://www.w3.org/1999/xlink">
<g id="graph0" class="graph" transform="scale(1 1) rotate(0) translate(4 183)">
<polygon fill="white" stroke="none" points="-4,4 -4,-183 290,-183 290,4 -4,4"/>
<g id="clust1" class="cluster">
<title>cluster_food_cat_i</title>
<polygon fill="none" stroke="black" points="72.5,-96 72.5,-171 146.5,-171 146.5,-96 72.5,-96"/>
<text text-anchor="middle" x="109.5" y="-103.8" font-family="Times,serif" font-size="14.00">food_cat_i</text>
</g>
<g id="clust2" class="cluster">
<title>cluster_data</title>
<polygon fill="none" stroke="black" points="39.5,-8 39.5,-83 181.5,-83 181.5,-8 39.5,-8"/>
<text text-anchor="middle" x="162" y="-15.8" font-family="Times,serif" font-size="14.00">data</text>
</g>
<!-- sigma -->
<g id="node1" class="node">
<title>sigma</title>
<ellipse fill="white" stroke="black" cx="32.5" cy="-145" rx="32.49" ry="18"/>
<text text-anchor="middle" x="32.5" y="-141.3" font-family="Times,serif" font-size="14.00">sigma</text>
</g>
<!-- y -->
<g id="node4" class="node">
<title>y</title>
<ellipse fill="grey" stroke="black" cx="74.5" cy="-57" rx="27" ry="18"/>
<text text-anchor="middle" x="74.5" y="-53.3" font-family="Times,serif" font-size="14.00">y</text>
</g>
<!-- sigma&#45;&gt;y -->
<g id="edge2" class="edge">
<title>sigma&#45;&gt;y</title>
<path fill="none" stroke="black" d="M40.6,-127.42C46.68,-114.97 55.12,-97.69 62.05,-83.48"/>
<polygon fill="black" stroke="black" points="65.32,-84.76 66.57,-74.24 59.03,-81.69 65.32,-84.76"/>
</g>
<!-- beta -->
<g id="node2" class="node">
<title>beta</title>
<ellipse fill="white" stroke="black" cx="109.5" cy="-145" rx="27" ry="18"/>
<text text-anchor="middle" x="109.5" y="-141.3" font-family="Times,serif" font-size="14.00">beta</text>
</g>
<!-- beta&#45;&gt;y -->
<g id="edge1" class="edge">
<title>beta&#45;&gt;y</title>
<path fill="none" stroke="black" d="M102.75,-127.42C97.76,-115.16 90.87,-98.24 85.15,-84.16"/>
<polygon fill="black" stroke="black" points="88.24,-82.47 81.22,-74.53 81.75,-85.11 88.24,-82.47"/>
</g>
<!-- mu -->
<g id="node3" class="node">
<title>mu</title>
<ellipse fill="grey" stroke="black" cx="146.5" cy="-57" rx="27" ry="18"/>
<text text-anchor="middle" x="146.5" y="-53.3" font-family="Times,serif" font-size="14.00">mu</text>
</g>
<!-- distribution_description_node -->
<g id="node5" class="node">
<title>distribution_description_node</title>
<text text-anchor="start" x="163" y="-163.8" font-family="Times,serif" font-size="14.00">beta ~ Normal</text>
<text text-anchor="start" x="163" y="-148.8" font-family="Times,serif" font-size="14.00">sigma ~ HalfNormal</text>
<text text-anchor="start" x="163" y="-133.8" font-family="Times,serif" font-size="14.00">mu ~ Delta</text>
<text text-anchor="start" x="163" y="-118.8" font-family="Times,serif" font-size="14.00">y ~ Normal</text>
</g>
</g>
</svg>
