<?xml version="1.0" encoding="UTF-8" standalone="no"?>
<!DOCTYPE svg PUBLIC "-//W3C//DTD SVG 1.1//EN"
 "http://www.w3.org/Graphics/SVG/1.1/DTD/svg11.dtd">
<!-- Generated by graphviz version 2.40.1 (20161225.0304)
 -->
<!-- Title: %3 Pages: 1 -->
<svg width="229pt" height="134pt"
 viewBox="0.00 0.00 229.00 134.00" xmlns="http://www.w3.org/2000/svg" xmlns:xlink="http://www.w3.org/1999/xlink">
<g id="graph0" class="graph" transform="scale(1 1) rotate(0) translate(4 130)">
<title>%3</title>
<polygon fill="#ffffff" stroke="transparent" points="-4,4 -4,-130 225,-130 225,4 -4,4"/>
<g id="clust1" class="cluster">
<title>cluster_food_cat_i</title>
<polygon fill="none" stroke="#000000" points="8,-8 8,-83 160,-83 160,-8 8,-8"/>
<text text-anchor="middle" x="122" y="-15.8" font-family="Times,serif" font-size="14.00" fill="#000000">food_cat_i</text>
</g>
<!-- sigma_scale -->
<g id="node1" class="node">
<title>sigma_scale</title>
<polygon fill="#ffffff" stroke="transparent" points="77.5,-126 8.5,-126 8.5,-111 77.5,-111 77.5,-126"/>
<text text-anchor="middle" x="43" y="-114.8" font-family="Times,serif" font-size="14.00" fill="#000000">sigma_scale</text>
</g>
<!-- sigma -->
<g id="node4" class="node">
<title>sigma</title>
<ellipse fill="#ffffff" stroke="#000000" cx="48" cy="-57" rx="32.4942" ry="18"/>
<text text-anchor="middle" x="48" y="-53.3" font-family="Times,serif" font-size="14.00" fill="#000000">sigma</text>
</g>
<!-- sigma_scale&#45;&gt;sigma -->
<g id="edge1" class="edge">
<title>sigma_scale&#45;&gt;sigma</title>
<path fill="none" stroke="#000000" d="M43.6131,-110.9589C44.1416,-104.4577 44.9392,-94.6476 45.71,-85.1673"/>
<polygon fill="#000000" stroke="#000000" points="49.1999,-85.4324 46.5218,-75.1816 42.2229,-84.8651 49.1999,-85.4324"/>
</g>
<!-- beta_scale -->
<g id="node2" class="node">
<title>beta_scale</title>
<polygon fill="#ffffff" stroke="transparent" points="154.5,-126 95.5,-126 95.5,-111 154.5,-111 154.5,-126"/>
<text text-anchor="middle" x="125" y="-114.8" font-family="Times,serif" font-size="14.00" fill="#000000">beta_scale</text>
</g>
<!-- beta -->
<g id="node5" class="node">
<title>beta</title>
<ellipse fill="#ffffff" stroke="#000000" cx="125" cy="-57" rx="27" ry="18"/>
<text text-anchor="middle" x="125" y="-53.3" font-family="Times,serif" font-size="14.00" fill="#000000">beta</text>
</g>
<!-- beta_scale&#45;&gt;beta -->
<g id="edge2" class="edge">
<title>beta_scale&#45;&gt;beta</title>
<path fill="none" stroke="#000000" d="M125,-110.9589C125,-104.5269 125,-94.856 125,-85.4699"/>
<polygon fill="#000000" stroke="#000000" points="128.5001,-85.1816 125,-75.1816 121.5001,-85.1817 128.5001,-85.1816"/>
</g>
<!-- beta_loc -->
<g id="node3" class="node">
<title>beta_loc</title>
<polygon fill="#ffffff" stroke="transparent" points="221,-126 173,-126 173,-111 221,-111 221,-126"/>
<text text-anchor="middle" x="197" y="-114.8" font-family="Times,serif" font-size="14.00" fill="#000000">beta_loc</text>
</g>
<!-- beta_loc&#45;&gt;beta -->
<g id="edge3" class="edge">
<title>beta_loc&#45;&gt;beta</title>
<path fill="none" stroke="#000000" d="M188.1714,-110.9589C178.6557,-102.831 163.0849,-89.5308 149.7836,-78.1694"/>
<polygon fill="#000000" stroke="#000000" points="151.7464,-75.2429 141.8694,-71.4093 147.2,-80.5655 151.7464,-75.2429"/>
</g>
</g>
</svg>
