<?xml version="1.0" encoding="UTF-8" standalone="no"?>
<!DOCTYPE svg PUBLIC "-//W3C//DTD SVG 1.1//EN"
 "http://www.w3.org/Graphics/SVG/1.1/DTD/svg11.dtd">
<!-- Generated by graphviz version 6.0.1 (0)
 -->
<!-- Pages: 1 -->
<svg width="241pt" height="167pt"
 viewBox="0.00 0.00 240.68 167.00" xmlns="http://www.w3.org/2000/svg" xmlns:xlink="http://www.w3.org/1999/xlink">
<g id="graph0" class="graph" transform="scale(1 1) rotate(0) translate(4 163)">
<polygon fill="white" stroke="none" points="-4,4 -4,-163 236.68,-163 236.68,4 -4,4"/>
<!-- _AutoDiagonalNormal_latent -->
<g id="node1" class="node">
<title>_AutoDiagonalNormal_latent</title>
<ellipse fill="white" stroke="black" cx="116.34" cy="-90" rx="116.18" ry="18"/>
<text text-anchor="middle" x="116.34" y="-86.3" font-family="Times,serif" font-size="14.00">_AutoDiagonalNormal_latent</text>
</g>
<!-- sigma -->
<g id="node2" class="node">
<title>sigma</title>
<ellipse fill="white" stroke="black" cx="78.34" cy="-18" rx="32.49" ry="18"/>
<text text-anchor="middle" x="78.34" y="-14.3" font-family="Times,serif" font-size="14.00">sigma</text>
</g>
<!-- _AutoDiagonalNormal_latent&#45;&gt;sigma -->
<g id="edge1" class="edge">
<title>_AutoDiagonalNormal_latent&#45;&gt;sigma</title>
<path fill="none" stroke="black" d="M107.14,-72.05C102.71,-63.89 97.29,-53.91 92.36,-44.82"/>
<polygon fill="black" stroke="black" points="95.3,-42.91 87.45,-35.79 89.15,-46.25 95.3,-42.91"/>
</g>
<!-- beta -->
<g id="node3" class="node">
<title>beta</title>
<ellipse fill="white" stroke="black" cx="155.34" cy="-18" rx="27" ry="18"/>
<text text-anchor="middle" x="155.34" y="-14.3" font-family="Times,serif" font-size="14.00">beta</text>
</g>
<!-- _AutoDiagonalNormal_latent&#45;&gt;beta -->
<g id="edge2" class="edge">
<title>_AutoDiagonalNormal_latent&#45;&gt;beta</title>
<path fill="none" stroke="black" d="M125.78,-72.05C130.45,-63.68 136.17,-53.4 141.34,-44.13"/>
<polygon fill="black" stroke="black" points="144.44,-45.75 146.25,-35.31 138.33,-42.34 144.44,-45.75"/>
</g>
<!-- AutoDiagonalNormal.scale -->
<g id="node4" class="node">
<title>AutoDiagonalNormal.scale</title>
<polygon fill="white" stroke="none" points="191.34,-159 41.34,-159 41.34,-144 191.34,-144 191.34,-159"/>
<text text-anchor="middle" x="116.34" y="-147.8" font-family="Times,serif" font-size="14.00">AutoDiagonalNormal.scale</text>
</g>
<!-- AutoDiagonalNormal.scale&#45;&gt;_AutoDiagonalNormal_latent -->
<g id="edge3" class="edge">
<title>AutoDiagonalNormal.scale&#45;&gt;_AutoDiagonalNormal_latent</title>
<path fill="none" stroke="black" d="M116.34,-143.67C116.34,-137.42 116.34,-127.74 116.34,-118.37"/>
<polygon fill="black" stroke="black" points="119.84,-118.13 116.34,-108.13 112.84,-118.13 119.84,-118.13"/>
</g>
</g>
</svg>
