<?xml version="1.0" encoding="UTF-8" standalone="no"?>
<!DOCTYPE svg PUBLIC "-//W3C//DTD SVG 1.1//EN"
 "http://www.w3.org/Graphics/SVG/1.1/DTD/svg11.dtd">
<!-- Generated by graphviz version 6.0.1 (0)
 -->
<!-- Pages: 1 -->
<svg width="324pt" height="95pt"
 viewBox="0.00 0.00 324.00 95.00" xmlns="http://www.w3.org/2000/svg" xmlns:xlink="http://www.w3.org/1999/xlink">
<g id="graph0" class="graph" transform="scale(1 1) rotate(0) translate(4 91)">
<polygon fill="white" stroke="none" points="-4,4 -4,-91 320,-91 320,4 -4,4"/>
<!-- beta_0 -->
<g id="node1" class="node">
<title>beta_0</title>
<ellipse fill="white" stroke="black" cx="92" cy="-18" rx="34.39" ry="18"/>
<text text-anchor="middle" x="92" y="-14.3" font-family="Times,serif" font-size="14.00">beta_0</text>
</g>
<!-- beta_1 -->
<g id="node2" class="node">
<title>beta_1</title>
<ellipse fill="white" stroke="black" cx="219" cy="-18" rx="34.39" ry="18"/>
<text text-anchor="middle" x="219" y="-14.3" font-family="Times,serif" font-size="14.00">beta_1</text>
</g>
<!-- beta_0_loc -->
<g id="node3" class="node">
<title>beta_0_loc</title>
<polygon fill="white" stroke="none" points="60,-87 0,-87 0,-72 60,-72 60,-87"/>
<text text-anchor="middle" x="30" y="-75.8" font-family="Times,serif" font-size="14.00">beta_0_loc</text>
</g>
<!-- beta_0_loc&#45;&gt;beta_0 -->
<g id="edge1" class="edge">
<title>beta_0_loc&#45;&gt;beta_0</title>
<path fill="none" stroke="black" d="M37.11,-71.67C44.81,-64.28 57.51,-52.1 68.75,-41.32"/>
<polygon fill="black" stroke="black" points="71.43,-43.6 76.22,-34.15 66.58,-38.55 71.43,-43.6"/>
</g>
<!-- beta_0_scale -->
<g id="node4" class="node">
<title>beta_0_scale</title>
<polygon fill="white" stroke="none" points="148,-87 78,-87 78,-72 148,-72 148,-87"/>
<text text-anchor="middle" x="113" y="-75.8" font-family="Times,serif" font-size="14.00">beta_0_scale</text>
</g>
<!-- beta_0_scale&#45;&gt;beta_0 -->
<g id="edge2" class="edge">
<title>beta_0_scale&#45;&gt;beta_0</title>
<path fill="none" stroke="black" d="M110.59,-71.67C108.32,-65.24 104.77,-55.18 101.37,-45.56"/>
<polygon fill="black" stroke="black" points="104.59,-44.14 97.96,-35.88 97.98,-46.47 104.59,-44.14"/>
</g>
<!-- beta_1_loc -->
<g id="node5" class="node">
<title>beta_1_loc</title>
<polygon fill="white" stroke="none" points="228,-87 168,-87 168,-72 228,-72 228,-87"/>
<text text-anchor="middle" x="198" y="-75.8" font-family="Times,serif" font-size="14.00">beta_1_loc</text>
</g>
<!-- beta_1_loc&#45;&gt;beta_1 -->
<g id="edge4" class="edge">
<title>beta_1_loc&#45;&gt;beta_1</title>
<path fill="none" stroke="black" d="M200.41,-71.67C202.68,-65.24 206.23,-55.18 209.63,-45.56"/>
<polygon fill="black" stroke="black" points="213.02,-46.47 213.04,-35.88 206.41,-44.14 213.02,-46.47"/>
</g>
<!-- beta_1_scale -->
<g id="node6" class="node">
<title>beta_1_scale</title>
<polygon fill="white" stroke="none" points="316,-87 246,-87 246,-72 316,-72 316,-87"/>
<text text-anchor="middle" x="281" y="-75.8" font-family="Times,serif" font-size="14.00">beta_1_scale</text>
</g>
<!-- beta_1_scale&#45;&gt;beta_1 -->
<g id="edge3" class="edge">
<title>beta_1_scale&#45;&gt;beta_1</title>
<path fill="none" stroke="black" d="M273.89,-71.67C266.19,-64.28 253.49,-52.1 242.25,-41.32"/>
<polygon fill="black" stroke="black" points="244.42,-38.55 234.78,-34.15 239.57,-43.6 244.42,-38.55"/>
</g>
</g>
</svg>
