<?xml version="1.0" encoding="UTF-8" standalone="no"?>
<!DOCTYPE svg PUBLIC "-//W3C//DTD SVG 1.1//EN"
 "http://www.w3.org/Graphics/SVG/1.1/DTD/svg11.dtd">
<!-- Generated by graphviz version 6.0.1 (0)
 -->
<!-- Pages: 1 -->
<svg width="437pt" height="202pt"
 viewBox="0.00 0.00 437.45 202.00" xmlns="http://www.w3.org/2000/svg" xmlns:xlink="http://www.w3.org/1999/xlink">
<g id="graph0" class="graph" transform="scale(1 1) rotate(0) translate(4 198)">
<polygon fill="white" stroke="none" points="-4,4 -4,-198 433.45,-198 433.45,4 -4,4"/>
<g id="clust1" class="cluster">
<title>cluster_plate</title>
<polygon fill="none" stroke="black" points="42.45,-8 42.45,-83 112.45,-83 112.45,-8 42.45,-8"/>
<text text-anchor="middle" x="90.95" y="-15.8" font-family="Times,serif" font-size="14.00">plate</text>
</g>
<!-- beta_0 -->
<g id="node1" class="node">
<title>beta_0</title>
<ellipse fill="white" stroke="black" cx="34.45" cy="-152.5" rx="34.39" ry="18"/>
<text text-anchor="middle" x="34.45" y="-148.8" font-family="Times,serif" font-size="14.00">beta_0</text>
</g>
<!-- y1 -->
<g id="node5" class="node">
<title>y1</title>
<ellipse fill="grey" stroke="black" cx="77.45" cy="-57" rx="27" ry="18"/>
<text text-anchor="middle" x="77.45" y="-53.3" font-family="Times,serif" font-size="14.00">y1</text>
</g>
<!-- beta_0&#45;&gt;y1 -->
<g id="edge2" class="edge">
<title>beta_0&#45;&gt;y1</title>
<path fill="none" stroke="black" d="M42.13,-134.78C48.62,-120.69 58,-100.28 65.47,-84.05"/>
<polygon fill="black" stroke="black" points="68.83,-85.12 69.83,-74.57 62.47,-82.19 68.83,-85.12"/>
</g>
<!-- beta_1 -->
<g id="node2" class="node">
<title>beta_1</title>
<ellipse fill="white" stroke="black" cx="121.45" cy="-152.5" rx="34.39" ry="18"/>
<text text-anchor="middle" x="121.45" y="-148.8" font-family="Times,serif" font-size="14.00">beta_1</text>
</g>
<!-- beta_1&#45;&gt;y1 -->
<g id="edge1" class="edge">
<title>beta_1&#45;&gt;y1</title>
<path fill="none" stroke="black" d="M113.58,-134.78C106.95,-120.69 97.34,-100.28 89.7,-84.05"/>
<polygon fill="black" stroke="black" points="92.67,-82.13 85.25,-74.57 86.34,-85.11 92.67,-82.13"/>
</g>
<!-- theta -->
<g id="node3" class="node">
<title>theta</title>
<ellipse fill="grey" stroke="black" cx="201.45" cy="-152.5" rx="27.9" ry="18"/>
<text text-anchor="middle" x="201.45" y="-148.8" font-family="Times,serif" font-size="14.00">theta</text>
</g>
<!-- db -->
<g id="node4" class="node">
<title>db</title>
<ellipse fill="grey" stroke="black" cx="274.45" cy="-152.5" rx="27" ry="18"/>
<text text-anchor="middle" x="274.45" y="-148.8" font-family="Times,serif" font-size="14.00">db</text>
</g>
<!-- distribution_description_node -->
<g id="node6" class="node">
<title>distribution_description_node</title>
<text text-anchor="start" x="327.45" y="-178.8" font-family="Times,serif" font-size="14.00">beta_0 ~ Normal</text>
<text text-anchor="start" x="327.45" y="-163.8" font-family="Times,serif" font-size="14.00">beta_1 ~ Normal</text>
<text text-anchor="start" x="327.45" y="-148.8" font-family="Times,serif" font-size="14.00">theta ~ Delta</text>
<text text-anchor="start" x="327.45" y="-133.8" font-family="Times,serif" font-size="14.00">db ~ Delta</text>
<text text-anchor="start" x="327.45" y="-118.8" font-family="Times,serif" font-size="14.00">y1 ~ Bernoulli</text>
</g>
</g>
</svg>
