<?xml version="1.0" encoding="UTF-8" standalone="no"?>
<!DOCTYPE svg PUBLIC "-//W3C//DTD SVG 1.1//EN"
 "http://www.w3.org/Graphics/SVG/1.1/DTD/svg11.dtd">
<!-- Generated by graphviz version 6.0.1 (0)
 -->
<!-- Pages: 1 -->
<svg width="344pt" height="187pt"
 viewBox="0.00 0.00 343.50 187.00" xmlns="http://www.w3.org/2000/svg" xmlns:xlink="http://www.w3.org/1999/xlink">
<g id="graph0" class="graph" transform="scale(1 1) rotate(0) translate(4 183)">
<polygon fill="white" stroke="none" points="-4,4 -4,-183 339.5,-183 339.5,4 -4,4"/>
<g id="clust1" class="cluster">
<title>cluster_output</title>
<polygon fill="none" stroke="black" points="8,-8 8,-83 78,-83 78,-8 8,-8"/>
<text text-anchor="middle" x="52.5" y="-15.8" font-family="Times,serif" font-size="14.00">output</text>
</g>
<!-- coef -->
<g id="node1" class="node">
<title>coef</title>
<ellipse fill="white" stroke="black" cx="43" cy="-145" rx="27" ry="18"/>
<text text-anchor="middle" x="43" y="-141.3" font-family="Times,serif" font-size="14.00">coef</text>
</g>
<!-- obs -->
<g id="node4" class="node">
<title>obs</title>
<ellipse fill="grey" stroke="black" cx="43" cy="-57" rx="27" ry="18"/>
<text text-anchor="middle" x="43" y="-53.3" font-family="Times,serif" font-size="14.00">obs</text>
</g>
<!-- coef&#45;&gt;obs -->
<g id="edge1" class="edge">
<title>coef&#45;&gt;obs</title>
<path fill="none" stroke="black" d="M43,-126.6C43,-114.75 43,-98.82 43,-85.29"/>
<polygon fill="black" stroke="black" points="46.5,-85.08 43,-75.08 39.5,-85.08 46.5,-85.08"/>
</g>
<!-- theta -->
<g id="node2" class="node">
<title>theta</title>
<ellipse fill="grey" stroke="black" cx="116" cy="-145" rx="27.9" ry="18"/>
<text text-anchor="middle" x="116" y="-141.3" font-family="Times,serif" font-size="14.00">theta</text>
</g>
<!-- db -->
<g id="node3" class="node">
<title>db</title>
<ellipse fill="grey" stroke="black" cx="189" cy="-145" rx="27" ry="18"/>
<text text-anchor="middle" x="189" y="-141.3" font-family="Times,serif" font-size="14.00">db</text>
</g>
<!-- distribution_description_node -->
<g id="node5" class="node">
<title>distribution_description_node</title>
<text text-anchor="start" x="242.5" y="-163.8" font-family="Times,serif" font-size="14.00">coef ~ Normal</text>
<text text-anchor="start" x="242.5" y="-148.8" font-family="Times,serif" font-size="14.00">theta ~ Delta</text>
<text text-anchor="start" x="242.5" y="-133.8" font-family="Times,serif" font-size="14.00">db ~ Delta</text>
<text text-anchor="start" x="242.5" y="-118.8" font-family="Times,serif" font-size="14.00">obs ~ Bernoulli</text>
</g>
</g>
</svg>
