<?xml version="1.0" encoding="UTF-8" standalone="no"?>
<!DOCTYPE svg PUBLIC "-//W3C//DTD SVG 1.1//EN"
 "http://www.w3.org/Graphics/SVG/1.1/DTD/svg11.dtd">
<!-- Generated by graphviz version 6.0.1 (0)
 -->
<!-- Pages: 1 -->
<svg width="468pt" height="202pt"
 viewBox="0.00 0.00 468.00 202.00" xmlns="http://www.w3.org/2000/svg" xmlns:xlink="http://www.w3.org/1999/xlink">
<g id="graph0" class="graph" transform="scale(1 1) rotate(0) translate(4 198)">
<polygon fill="white" stroke="none" points="-4,4 -4,-198 464,-198 464,4 -4,4"/>
<g id="clust1" class="cluster">
<title>cluster_plate</title>
<polygon fill="none" stroke="black" points="80.5,-8 80.5,-83 154.5,-83 154.5,-8 80.5,-8"/>
<text text-anchor="middle" x="133" y="-15.8" font-family="Times,serif" font-size="14.00">plate</text>
</g>
<!-- sigma -->
<g id="node1" class="node">
<title>sigma</title>
<ellipse fill="white" stroke="black" cx="32.5" cy="-152.5" rx="32.49" ry="18"/>
<text text-anchor="middle" x="32.5" y="-148.8" font-family="Times,serif" font-size="14.00">sigma</text>
</g>
<!-- mass -->
<g id="node5" class="node">
<title>mass</title>
<ellipse fill="grey" stroke="black" cx="117.5" cy="-57" rx="28.7" ry="18"/>
<text text-anchor="middle" x="117.5" y="-53.3" font-family="Times,serif" font-size="14.00">mass</text>
</g>
<!-- sigma&#45;&gt;mass -->
<g id="edge1" class="edge">
<title>sigma&#45;&gt;mass</title>
<path fill="none" stroke="black" d="M46.53,-136.06C60.27,-120.95 81.36,-97.75 96.98,-80.57"/>
<polygon fill="black" stroke="black" points="99.59,-82.91 103.72,-73.15 94.41,-78.2 99.59,-82.91"/>
</g>
<!-- beta_0 -->
<g id="node2" class="node">
<title>beta_0</title>
<ellipse fill="white" stroke="black" cx="117.5" cy="-152.5" rx="34.39" ry="18"/>
<text text-anchor="middle" x="117.5" y="-148.8" font-family="Times,serif" font-size="14.00">beta_0</text>
</g>
<!-- beta_0&#45;&gt;mass -->
<g id="edge3" class="edge">
<title>beta_0&#45;&gt;mass</title>
<path fill="none" stroke="black" d="M117.5,-134.35C117.5,-120.64 117.5,-101.17 117.5,-85.32"/>
<polygon fill="black" stroke="black" points="121,-85.04 117.5,-75.04 114,-85.04 121,-85.04"/>
</g>
<!-- beta_1 -->
<g id="node3" class="node">
<title>beta_1</title>
<ellipse fill="white" stroke="black" cx="204.5" cy="-152.5" rx="34.39" ry="18"/>
<text text-anchor="middle" x="204.5" y="-148.8" font-family="Times,serif" font-size="14.00">beta_1</text>
</g>
<!-- beta_1&#45;&gt;mass -->
<g id="edge2" class="edge">
<title>beta_1&#45;&gt;mass</title>
<path fill="none" stroke="black" d="M190.13,-136.06C175.98,-120.86 154.23,-97.48 138.22,-80.27"/>
<polygon fill="black" stroke="black" points="140.68,-77.78 131.31,-72.84 135.56,-82.55 140.68,-77.78"/>
</g>
<!-- mu -->
<g id="node4" class="node">
<title>mu</title>
<ellipse fill="grey" stroke="black" cx="283.5" cy="-152.5" rx="27" ry="18"/>
<text text-anchor="middle" x="283.5" y="-148.8" font-family="Times,serif" font-size="14.00">mu</text>
</g>
<!-- distribution_description_node -->
<g id="node6" class="node">
<title>distribution_description_node</title>
<text text-anchor="start" x="337" y="-178.8" font-family="Times,serif" font-size="14.00">sigma ~ HalfNormal</text>
<text text-anchor="start" x="337" y="-163.8" font-family="Times,serif" font-size="14.00">beta_0 ~ Normal</text>
<text text-anchor="start" x="337" y="-148.8" font-family="Times,serif" font-size="14.00">beta_1 ~ Normal</text>
<text text-anchor="start" x="337" y="-133.8" font-family="Times,serif" font-size="14.00">mu ~ Delta</text>
<text text-anchor="start" x="337" y="-118.8" font-family="Times,serif" font-size="14.00">mass ~ Normal</text>
</g>
</g>
</svg>
