<?xml version="1.0" encoding="UTF-8" standalone="no"?>
<!DOCTYPE svg PUBLIC "-//W3C//DTD SVG 1.1//EN"
 "http://www.w3.org/Graphics/SVG/1.1/DTD/svg11.dtd">
<!-- Generated by graphviz version 6.0.1 (0)
 -->
<!-- Pages: 1 -->
<svg width="555pt" height="217pt"
 viewBox="0.00 0.00 555.00 217.00" xmlns="http://www.w3.org/2000/svg" xmlns:xlink="http://www.w3.org/1999/xlink">
<g id="graph0" class="graph" transform="scale(1 1) rotate(0) translate(4 213)">
<polygon fill="white" stroke="none" points="-4,4 -4,-213 551,-213 551,4 -4,4"/>
<g id="clust1" class="cluster">
<title>cluster_plate</title>
<polygon fill="none" stroke="black" points="123.5,-8 123.5,-83 197.5,-83 197.5,-8 123.5,-8"/>
<text text-anchor="middle" x="176" y="-15.8" font-family="Times,serif" font-size="14.00">plate</text>
</g>
<!-- sigma -->
<g id="node1" class="node">
<title>sigma</title>
<ellipse fill="white" stroke="black" cx="32.5" cy="-160" rx="32.49" ry="18"/>
<text text-anchor="middle" x="32.5" y="-156.3" font-family="Times,serif" font-size="14.00">sigma</text>
</g>
<!-- mass -->
<g id="node6" class="node">
<title>mass</title>
<ellipse fill="grey" stroke="black" cx="160.5" cy="-57" rx="28.7" ry="18"/>
<text text-anchor="middle" x="160.5" y="-53.3" font-family="Times,serif" font-size="14.00">mass</text>
</g>
<!-- sigma&#45;&gt;mass -->
<g id="edge1" class="edge">
<title>sigma&#45;&gt;mass</title>
<path fill="none" stroke="black" d="M44.3,-143.22C52.19,-133.29 63.17,-120.58 74.5,-111 91.44,-96.66 112.65,-83.55 129.77,-73.95"/>
<polygon fill="black" stroke="black" points="131.72,-76.87 138.8,-69 128.35,-70.74 131.72,-76.87"/>
</g>
<!-- beta_0 -->
<g id="node2" class="node">
<title>beta_0</title>
<ellipse fill="white" stroke="black" cx="117.5" cy="-160" rx="34.39" ry="18"/>
<text text-anchor="middle" x="117.5" y="-156.3" font-family="Times,serif" font-size="14.00">beta_0</text>
</g>
<!-- beta_0&#45;&gt;mass -->
<g id="edge2" class="edge">
<title>beta_0&#45;&gt;mass</title>
<path fill="none" stroke="black" d="M124.6,-142.32C131.35,-126.46 141.61,-102.36 149.44,-83.98"/>
<polygon fill="black" stroke="black" points="152.69,-85.27 153.39,-74.7 146.25,-82.53 152.69,-85.27"/>
</g>
<!-- beta_1 -->
<g id="node3" class="node">
<title>beta_1</title>
<ellipse fill="white" stroke="black" cx="204.5" cy="-160" rx="34.39" ry="18"/>
<text text-anchor="middle" x="204.5" y="-156.3" font-family="Times,serif" font-size="14.00">beta_1</text>
</g>
<!-- beta_1&#45;&gt;mass -->
<g id="edge3" class="edge">
<title>beta_1&#45;&gt;mass</title>
<path fill="none" stroke="black" d="M197.23,-142.32C190.32,-126.46 179.82,-102.36 171.81,-83.98"/>
<polygon fill="black" stroke="black" points="174.98,-82.47 167.77,-74.7 168.56,-85.27 174.98,-82.47"/>
</g>
<!-- beta_2 -->
<g id="node4" class="node">
<title>beta_2</title>
<ellipse fill="white" stroke="black" cx="291.5" cy="-160" rx="34.39" ry="18"/>
<text text-anchor="middle" x="291.5" y="-156.3" font-family="Times,serif" font-size="14.00">beta_2</text>
</g>
<!-- beta_2&#45;&gt;mass -->
<g id="edge4" class="edge">
<title>beta_2&#45;&gt;mass</title>
<path fill="none" stroke="black" d="M278.64,-142.79C270.36,-132.94 259.02,-120.48 247.5,-111 230.21,-96.79 208.75,-83.67 191.47,-74.05"/>
<polygon fill="black" stroke="black" points="192.81,-70.79 182.35,-69.07 189.45,-76.93 192.81,-70.79"/>
</g>
<!-- mu -->
<g id="node5" class="node">
<title>mu</title>
<ellipse fill="grey" stroke="black" cx="370.5" cy="-160" rx="27" ry="18"/>
<text text-anchor="middle" x="370.5" y="-156.3" font-family="Times,serif" font-size="14.00">mu</text>
</g>
<!-- distribution_description_node -->
<g id="node7" class="node">
<title>distribution_description_node</title>
<text text-anchor="start" x="424" y="-193.8" font-family="Times,serif" font-size="14.00">sigma ~ HalfNormal</text>
<text text-anchor="start" x="424" y="-178.8" font-family="Times,serif" font-size="14.00">beta_0 ~ Normal</text>
<text text-anchor="start" x="424" y="-163.8" font-family="Times,serif" font-size="14.00">beta_1 ~ Normal</text>
<text text-anchor="start" x="424" y="-148.8" font-family="Times,serif" font-size="14.00">beta_2 ~ Normal</text>
<text text-anchor="start" x="424" y="-133.8" font-family="Times,serif" font-size="14.00">mu ~ Delta</text>
<text text-anchor="start" x="424" y="-118.8" font-family="Times,serif" font-size="14.00">mass ~ Normal</text>
</g>
</g>
</svg>
