<?xml version="1.0" encoding="UTF-8" standalone="no"?>
<!DOCTYPE svg PUBLIC "-//W3C//DTD SVG 1.1//EN"
 "http://www.w3.org/Graphics/SVG/1.1/DTD/svg11.dtd">
<!-- Generated by graphviz version 6.0.1 (0)
 -->
<!-- Pages: 1 -->
<svg width="300pt" height="285pt"
 viewBox="0.00 0.00 299.50 285.00" xmlns="http://www.w3.org/2000/svg" xmlns:xlink="http://www.w3.org/1999/xlink">
<g id="graph0" class="graph" transform="scale(1 1) rotate(0) translate(4 281)">
<polygon fill="white" stroke="none" points="-4,4 -4,-281 295.5,-281 295.5,4 -4,4"/>
<g id="clust1" class="cluster">
<title>cluster_coef</title>
<polygon fill="none" stroke="black" points="8,-91 8,-166 78,-166 78,-91 8,-91"/>
<text text-anchor="middle" x="58" y="-98.8" font-family="Times,serif" font-size="14.00">coef</text>
</g>
<g id="clust2" class="cluster">
<title>cluster_obs</title>
<polygon fill="none" stroke="black" points="22,-8 22,-83 106,-83 106,-8 22,-8"/>
<text text-anchor="middle" x="88.5" y="-15.8" font-family="Times,serif" font-size="14.00">obs</text>
</g>
<!-- tau -->
<g id="node1" class="node">
<title>tau</title>
<ellipse fill="white" stroke="black" cx="43" cy="-235.5" rx="27" ry="18"/>
<text text-anchor="middle" x="43" y="-231.8" font-family="Times,serif" font-size="14.00">tau</text>
</g>
<!-- beta -->
<g id="node4" class="node">
<title>beta</title>
<ellipse fill="white" stroke="black" cx="43" cy="-140" rx="27" ry="18"/>
<text text-anchor="middle" x="43" y="-136.3" font-family="Times,serif" font-size="14.00">beta</text>
</g>
<!-- tau&#45;&gt;beta -->
<g id="edge1" class="edge">
<title>tau&#45;&gt;beta</title>
<path fill="none" stroke="black" d="M43,-217.35C43,-203.64 43,-184.17 43,-168.32"/>
<polygon fill="black" stroke="black" points="46.5,-168.04 43,-158.04 39.5,-168.04 46.5,-168.04"/>
</g>
<!-- sigma -->
<g id="node2" class="node">
<title>sigma</title>
<ellipse fill="white" stroke="black" cx="120" cy="-140" rx="32.49" ry="18"/>
<text text-anchor="middle" x="120" y="-136.3" font-family="Times,serif" font-size="14.00">sigma</text>
</g>
<!-- uptake -->
<g id="node5" class="node">
<title>uptake</title>
<ellipse fill="grey" stroke="black" cx="64" cy="-57" rx="34.39" ry="18"/>
<text text-anchor="middle" x="64" y="-53.3" font-family="Times,serif" font-size="14.00">uptake</text>
</g>
<!-- sigma&#45;&gt;uptake -->
<g id="edge3" class="edge">
<title>sigma&#45;&gt;uptake</title>
<path fill="none" stroke="black" d="M108.94,-123C101.01,-111.53 90.19,-95.88 81.15,-82.8"/>
<polygon fill="black" stroke="black" points="83.8,-80.48 75.23,-74.25 78.04,-84.46 83.8,-80.48"/>
</g>
<!-- ug -->
<g id="node3" class="node">
<title>ug</title>
<ellipse fill="grey" stroke="black" cx="115" cy="-235.5" rx="27" ry="18"/>
<text text-anchor="middle" x="115" y="-231.8" font-family="Times,serif" font-size="14.00">ug</text>
</g>
<!-- beta&#45;&gt;uptake -->
<g id="edge2" class="edge">
<title>beta&#45;&gt;uptake</title>
<path fill="none" stroke="black" d="M47.35,-122.22C50.15,-111.43 53.84,-97.17 57.04,-84.84"/>
<polygon fill="black" stroke="black" points="60.46,-85.6 59.58,-75.04 53.68,-83.84 60.46,-85.6"/>
</g>
<!-- distribution_description_node -->
<g id="node6" class="node">
<title>distribution_description_node</title>
<text text-anchor="start" x="168.5" y="-261.8" font-family="Times,serif" font-size="14.00">tau ~ HalfCauchy</text>
<text text-anchor="start" x="168.5" y="-246.8" font-family="Times,serif" font-size="14.00">sigma ~ HalfNormal</text>
<text text-anchor="start" x="168.5" y="-231.8" font-family="Times,serif" font-size="14.00">beta ~ Normal</text>
<text text-anchor="start" x="168.5" y="-216.8" font-family="Times,serif" font-size="14.00">ug ~ Delta</text>
<text text-anchor="start" x="168.5" y="-201.8" font-family="Times,serif" font-size="14.00">uptake ~ Normal</text>
</g>
</g>
</svg>
