<?xml version="1.0" encoding="UTF-8" standalone="no"?>
<!DOCTYPE svg PUBLIC "-//W3C//DTD SVG 1.1//EN"
 "http://www.w3.org/Graphics/SVG/1.1/DTD/svg11.dtd">
<!-- Generated by graphviz version 6.0.1 (0)
 -->
<!-- Pages: 1 -->
<svg width="300pt" height="285pt"
 viewBox="0.00 0.00 299.50 285.00" xmlns="http://www.w3.org/2000/svg" xmlns:xlink="http://www.w3.org/1999/xlink">
<g id="graph0" class="graph" transform="scale(1 1) rotate(0) translate(4 281)">
<polygon fill="white" stroke="none" points="-4,4 -4,-281 295.5,-281 295.5,4 -4,4"/>
<g id="clust1" class="cluster">
<title>cluster_knot_list</title>
<polygon fill="none" stroke="black" points="8,-91 8,-166 78,-166 78,-91 8,-91"/>
<text text-anchor="middle" x="46" y="-98.8" font-family="Times,serif" font-size="14.00">knot_list</text>
</g>
<g id="clust2" class="cluster">
<title>cluster_output</title>
<polygon fill="none" stroke="black" points="8,-8 8,-83 78,-83 78,-8 8,-8"/>
<text text-anchor="middle" x="52.5" y="-15.8" font-family="Times,serif" font-size="14.00">output</text>
</g>
<!-- tau -->
<g id="node1" class="node">
<title>tau</title>
<ellipse fill="white" stroke="black" cx="43" cy="-235.5" rx="27" ry="18"/>
<text text-anchor="middle" x="43" y="-231.8" font-family="Times,serif" font-size="14.00">tau</text>
</g>
<!-- beta -->
<g id="node4" class="node">
<title>beta</title>
<ellipse fill="white" stroke="black" cx="43" cy="-140" rx="27" ry="18"/>
<text text-anchor="middle" x="43" y="-136.3" font-family="Times,serif" font-size="14.00">beta</text>
</g>
<!-- tau&#45;&gt;beta -->
<g id="edge1" class="edge">
<title>tau&#45;&gt;beta</title>
<path fill="none" stroke="black" d="M43,-217.35C43,-203.64 43,-184.17 43,-168.32"/>
<polygon fill="black" stroke="black" points="46.5,-168.04 43,-158.04 39.5,-168.04 46.5,-168.04"/>
</g>
<!-- sigma -->
<g id="node2" class="node">
<title>sigma</title>
<ellipse fill="white" stroke="black" cx="120" cy="-140" rx="32.49" ry="18"/>
<text text-anchor="middle" x="120" y="-136.3" font-family="Times,serif" font-size="14.00">sigma</text>
</g>
<!-- y -->
<g id="node5" class="node">
<title>y</title>
<ellipse fill="grey" stroke="black" cx="43" cy="-57" rx="27" ry="18"/>
<text text-anchor="middle" x="43" y="-53.3" font-family="Times,serif" font-size="14.00">y</text>
</g>
<!-- sigma&#45;&gt;y -->
<g id="edge2" class="edge">
<title>sigma&#45;&gt;y</title>
<path fill="none" stroke="black" d="M108.43,-122.78C101.26,-113.15 91.61,-100.93 82,-91 77.65,-86.51 72.74,-81.99 67.91,-77.8"/>
<polygon fill="black" stroke="black" points="69.87,-74.87 59.97,-71.12 65.37,-80.23 69.87,-74.87"/>
</g>
<!-- mu -->
<g id="node3" class="node">
<title>mu</title>
<ellipse fill="grey" stroke="black" cx="115" cy="-235.5" rx="27" ry="18"/>
<text text-anchor="middle" x="115" y="-231.8" font-family="Times,serif" font-size="14.00">mu</text>
</g>
<!-- beta&#45;&gt;y -->
<g id="edge3" class="edge">
<title>beta&#45;&gt;y</title>
<path fill="none" stroke="black" d="M43,-121.82C43,-111.19 43,-97.31 43,-85.2"/>
<polygon fill="black" stroke="black" points="46.5,-85.15 43,-75.15 39.5,-85.15 46.5,-85.15"/>
</g>
<!-- distribution_description_node -->
<g id="node6" class="node">
<title>distribution_description_node</title>
<text text-anchor="start" x="168.5" y="-261.8" font-family="Times,serif" font-size="14.00">tau ~ HalfCauchy</text>
<text text-anchor="start" x="168.5" y="-246.8" font-family="Times,serif" font-size="14.00">sigma ~ HalfNormal</text>
<text text-anchor="start" x="168.5" y="-231.8" font-family="Times,serif" font-size="14.00">beta ~ Normal</text>
<text text-anchor="start" x="168.5" y="-216.8" font-family="Times,serif" font-size="14.00">mu ~ Delta</text>
<text text-anchor="start" x="168.5" y="-201.8" font-family="Times,serif" font-size="14.00">y ~ Normal</text>
</g>
</g>
</svg>
