<?xml version="1.0" encoding="UTF-8" standalone="no"?>
<!DOCTYPE svg PUBLIC "-//W3C//DTD SVG 1.1//EN"
 "http://www.w3.org/Graphics/SVG/1.1/DTD/svg11.dtd">
<!-- Generated by graphviz version 6.0.1 (0)
 -->
<!-- Pages: 1 -->
<svg width="461pt" height="202pt"
 viewBox="0.00 0.00 461.45 202.00" xmlns="http://www.w3.org/2000/svg" xmlns:xlink="http://www.w3.org/1999/xlink">
<g id="graph0" class="graph" transform="scale(1 1) rotate(0) translate(4 198)">
<polygon fill="white" stroke="none" points="-4,4 -4,-198 457.45,-198 457.45,4 -4,4"/>
<g id="clust1" class="cluster">
<title>cluster_plate</title>
<polygon fill="none" stroke="black" points="86.45,-8 86.45,-83 156.45,-83 156.45,-8 86.45,-8"/>
<text text-anchor="middle" x="134.95" y="-15.8" font-family="Times,serif" font-size="14.00">plate</text>
</g>
<!-- beta_0 -->
<g id="node1" class="node">
<title>beta_0</title>
<ellipse fill="white" stroke="black" cx="34.45" cy="-152.5" rx="34.39" ry="18"/>
<text text-anchor="middle" x="34.45" y="-148.8" font-family="Times,serif" font-size="14.00">beta_0</text>
</g>
<!-- y -->
<g id="node5" class="node">
<title>y</title>
<ellipse fill="grey" stroke="black" cx="121.45" cy="-57" rx="27" ry="18"/>
<text text-anchor="middle" x="121.45" y="-53.3" font-family="Times,serif" font-size="14.00">y</text>
</g>
<!-- beta_0&#45;&gt;y -->
<g id="edge1" class="edge">
<title>beta_0&#45;&gt;y</title>
<path fill="none" stroke="black" d="M48.81,-136.06C62.96,-120.86 84.71,-97.48 100.73,-80.27"/>
<polygon fill="black" stroke="black" points="103.38,-82.55 107.63,-72.84 98.26,-77.78 103.38,-82.55"/>
</g>
<!-- beta_1 -->
<g id="node2" class="node">
<title>beta_1</title>
<ellipse fill="white" stroke="black" cx="121.45" cy="-152.5" rx="34.39" ry="18"/>
<text text-anchor="middle" x="121.45" y="-148.8" font-family="Times,serif" font-size="14.00">beta_1</text>
</g>
<!-- beta_1&#45;&gt;y -->
<g id="edge3" class="edge">
<title>beta_1&#45;&gt;y</title>
<path fill="none" stroke="black" d="M121.45,-134.35C121.45,-120.64 121.45,-101.17 121.45,-85.32"/>
<polygon fill="black" stroke="black" points="124.95,-85.04 121.45,-75.04 117.95,-85.04 124.95,-85.04"/>
</g>
<!-- delta -->
<g id="node3" class="node">
<title>delta</title>
<ellipse fill="white" stroke="black" cx="201.45" cy="-152.5" rx="27.9" ry="18"/>
<text text-anchor="middle" x="201.45" y="-148.8" font-family="Times,serif" font-size="14.00">delta</text>
</g>
<!-- delta&#45;&gt;y -->
<g id="edge2" class="edge">
<title>delta&#45;&gt;y</title>
<path fill="none" stroke="black" d="M188.59,-136.48C175.76,-121.48 155.88,-98.24 141.08,-80.94"/>
<polygon fill="black" stroke="black" points="143.43,-78.31 134.27,-72.99 138.11,-82.86 143.43,-78.31"/>
</g>
<!-- sigma -->
<g id="node4" class="node">
<title>sigma</title>
<ellipse fill="grey" stroke="black" cx="279.45" cy="-152.5" rx="32.49" ry="18"/>
<text text-anchor="middle" x="279.45" y="-148.8" font-family="Times,serif" font-size="14.00">sigma</text>
</g>
<!-- distribution_description_node -->
<g id="node6" class="node">
<title>distribution_description_node</title>
<text text-anchor="start" x="337.45" y="-178.8" font-family="Times,serif" font-size="14.00">beta_0 ~ Normal</text>
<text text-anchor="start" x="337.45" y="-163.8" font-family="Times,serif" font-size="14.00">beta_1 ~ Normal</text>
<text text-anchor="start" x="337.45" y="-148.8" font-family="Times,serif" font-size="14.00">delta ~ HalfNormal</text>
<text text-anchor="start" x="337.45" y="-133.8" font-family="Times,serif" font-size="14.00">sigma ~ Delta</text>
<text text-anchor="start" x="337.45" y="-118.8" font-family="Times,serif" font-size="14.00">y ~ Normal</text>
</g>
</g>
</svg>
