<?xml version="1.0" encoding="UTF-8" standalone="no"?>
<!DOCTYPE svg PUBLIC "-//W3C//DTD SVG 1.1//EN"
 "http://www.w3.org/Graphics/SVG/1.1/DTD/svg11.dtd">
<!-- Generated by graphviz version 6.0.1 (0)
 -->
<!-- Pages: 1 -->
<svg width="638pt" height="315pt"
 viewBox="0.00 0.00 638.49 315.00" xmlns="http://www.w3.org/2000/svg" xmlns:xlink="http://www.w3.org/1999/xlink">
<g id="graph0" class="graph" transform="scale(1 1) rotate(0) translate(4 311)">
<polygon fill="white" stroke="none" points="-4,4 -4,-311 634.49,-311 634.49,4 -4,4"/>
<g id="clust1" class="cluster">
<title>cluster_location_i</title>
<polygon fill="none" stroke="black" points="183.99,-91 183.99,-166 335.99,-166 335.99,-91 183.99,-91"/>
<text text-anchor="middle" x="300.49" y="-98.8" font-family="Times,serif" font-size="14.00">location_i</text>
</g>
<g id="clust2" class="cluster">
<title>cluster_output</title>
<polygon fill="none" stroke="black" points="188.99,-8 188.99,-83 330.99,-83 330.99,-8 188.99,-8"/>
<text text-anchor="middle" x="305.49" y="-15.8" font-family="Times,serif" font-size="14.00">output</text>
</g>
<!-- beta_loc_hyper -->
<g id="node1" class="node">
<title>beta_loc_hyper</title>
<ellipse fill="white" stroke="black" cx="64.99" cy="-250.5" rx="64.99" ry="18"/>
<text text-anchor="middle" x="64.99" y="-246.8" font-family="Times,serif" font-size="14.00">beta_loc_hyper</text>
</g>
<!-- beta -->
<g id="node4" class="node">
<title>beta</title>
<ellipse fill="white" stroke="black" cx="218.99" cy="-140" rx="27" ry="18"/>
<text text-anchor="middle" x="218.99" y="-136.3" font-family="Times,serif" font-size="14.00">beta</text>
</g>
<!-- beta_loc_hyper&#45;&gt;beta -->
<g id="edge1" class="edge">
<title>beta_loc_hyper&#45;&gt;beta</title>
<path fill="none" stroke="black" d="M85.81,-233.38C100.5,-222.12 120.75,-206.87 138.99,-194 156.18,-181.88 175.87,-168.83 191.41,-158.71"/>
<polygon fill="black" stroke="black" points="193.55,-161.49 200.03,-153.12 189.74,-155.62 193.55,-161.49"/>
</g>
<!-- beta_scale_hyper -->
<g id="node2" class="node">
<title>beta_scale_hyper</title>
<ellipse fill="white" stroke="black" cx="218.99" cy="-250.5" rx="71.49" ry="18"/>
<text text-anchor="middle" x="218.99" y="-246.8" font-family="Times,serif" font-size="14.00">beta_scale_hyper</text>
</g>
<!-- beta_scale_hyper&#45;&gt;beta -->
<g id="edge2" class="edge">
<title>beta_scale_hyper&#45;&gt;beta</title>
<path fill="none" stroke="black" d="M218.99,-232.07C218.99,-214.8 218.99,-188.12 218.99,-168.09"/>
<polygon fill="black" stroke="black" points="222.49,-168.03 218.99,-158.03 215.49,-168.03 222.49,-168.03"/>
</g>
<!-- sigma_hyper -->
<g id="node3" class="node">
<title>sigma_hyper</title>
<ellipse fill="white" stroke="black" cx="364.99" cy="-250.5" rx="56.59" ry="18"/>
<text text-anchor="middle" x="364.99" y="-246.8" font-family="Times,serif" font-size="14.00">sigma_hyper</text>
</g>
<!-- sigma -->
<g id="node5" class="node">
<title>sigma</title>
<ellipse fill="white" stroke="black" cx="295.99" cy="-140" rx="32.49" ry="18"/>
<text text-anchor="middle" x="295.99" y="-136.3" font-family="Times,serif" font-size="14.00">sigma</text>
</g>
<!-- sigma_hyper&#45;&gt;sigma -->
<g id="edge3" class="edge">
<title>sigma_hyper&#45;&gt;sigma</title>
<path fill="none" stroke="black" d="M354.21,-232.55C342.79,-214.58 324.64,-186.05 311.64,-165.61"/>
<polygon fill="black" stroke="black" points="314.57,-163.69 306.25,-157.13 308.66,-167.44 314.57,-163.69"/>
</g>
<!-- y -->
<g id="node7" class="node">
<title>y</title>
<ellipse fill="grey" stroke="black" cx="223.99" cy="-57" rx="27" ry="18"/>
<text text-anchor="middle" x="223.99" y="-53.3" font-family="Times,serif" font-size="14.00">y</text>
</g>
<!-- beta&#45;&gt;y -->
<g id="edge5" class="edge">
<title>beta&#45;&gt;y</title>
<path fill="none" stroke="black" d="M220.05,-121.82C220.71,-111.19 221.57,-97.31 222.32,-85.2"/>
<polygon fill="black" stroke="black" points="225.81,-85.35 222.94,-75.15 218.83,-84.92 225.81,-85.35"/>
</g>
<!-- sigma&#45;&gt;y -->
<g id="edge4" class="edge">
<title>sigma&#45;&gt;y</title>
<path fill="none" stroke="black" d="M282.88,-123.27C274.93,-113.82 264.5,-101.61 254.99,-91 251.84,-87.48 248.46,-83.79 245.13,-80.21"/>
<polygon fill="black" stroke="black" points="247.43,-77.55 238.03,-72.65 242.32,-82.33 247.43,-77.55"/>
</g>
<!-- mu -->
<g id="node6" class="node">
<title>mu</title>
<ellipse fill="grey" stroke="black" cx="295.99" cy="-57" rx="27" ry="18"/>
<text text-anchor="middle" x="295.99" y="-53.3" font-family="Times,serif" font-size="14.00">mu</text>
</g>
<!-- distribution_description_node -->
<g id="node8" class="node">
<title>distribution_description_node</title>
<text text-anchor="start" x="447.49" y="-291.8" font-family="Times,serif" font-size="14.00">beta_loc_hyper ~ Normal</text>
<text text-anchor="start" x="447.49" y="-276.8" font-family="Times,serif" font-size="14.00">beta_scale_hyper ~ HalfNormal</text>
<text text-anchor="start" x="447.49" y="-261.8" font-family="Times,serif" font-size="14.00">sigma_hyper ~ HalfNormal</text>
<text text-anchor="start" x="447.49" y="-246.8" font-family="Times,serif" font-size="14.00">beta ~ Normal</text>
<text text-anchor="start" x="447.49" y="-231.8" font-family="Times,serif" font-size="14.00">sigma ~ HalfNormal</text>
<text text-anchor="start" x="447.49" y="-216.8" font-family="Times,serif" font-size="14.00">mu ~ Delta</text>
<text text-anchor="start" x="447.49" y="-201.8" font-family="Times,serif" font-size="14.00">y ~ Normal</text>
</g>
</g>
</svg>
