<?xml version="1.0" encoding="UTF-8" standalone="no"?>
<!DOCTYPE svg PUBLIC "-//W3C//DTD SVG 1.1//EN"
 "http://www.w3.org/Graphics/SVG/1.1/DTD/svg11.dtd">
<!-- Generated by graphviz version 6.0.1 (0)
 -->
<!-- Pages: 1 -->
<svg width="310pt" height="187pt"
 viewBox="0.00 0.00 309.50 187.00" xmlns="http://www.w3.org/2000/svg" xmlns:xlink="http://www.w3.org/1999/xlink">
<g id="graph0" class="graph" transform="scale(1 1) rotate(0) translate(4 183)">
<polygon fill="white" stroke="none" points="-4,4 -4,-183 305.5,-183 305.5,4 -4,4"/>
<g id="clust1" class="cluster">
<title>cluster_food_cat_i</title>
<polygon fill="none" stroke="black" points="8,-96 8,-171 160,-171 160,-96 8,-96"/>
<text text-anchor="middle" x="123" y="-103.8" font-family="Times,serif" font-size="14.00">food_cat_i</text>
</g>
<g id="clust2" class="cluster">
<title>cluster_data</title>
<polygon fill="none" stroke="black" points="13,-8 13,-83 155,-83 155,-8 13,-8"/>
<text text-anchor="middle" x="135.5" y="-15.8" font-family="Times,serif" font-size="14.00">data</text>
</g>
<!-- sigma -->
<g id="node1" class="node">
<title>sigma</title>
<ellipse fill="white" stroke="black" cx="120" cy="-145" rx="32.49" ry="18"/>
<text text-anchor="middle" x="120" y="-141.3" font-family="Times,serif" font-size="14.00">sigma</text>
</g>
<!-- y -->
<g id="node4" class="node">
<title>y</title>
<ellipse fill="grey" stroke="black" cx="48" cy="-57" rx="27" ry="18"/>
<text text-anchor="middle" x="48" y="-53.3" font-family="Times,serif" font-size="14.00">y</text>
</g>
<!-- sigma&#45;&gt;y -->
<g id="edge1" class="edge">
<title>sigma&#45;&gt;y</title>
<path fill="none" stroke="black" d="M106.79,-128.23C95.7,-114.97 79.69,-95.85 67.18,-80.91"/>
<polygon fill="black" stroke="black" points="69.74,-78.52 60.64,-73.1 64.38,-83.01 69.74,-78.52"/>
</g>
<!-- beta -->
<g id="node2" class="node">
<title>beta</title>
<ellipse fill="white" stroke="black" cx="43" cy="-145" rx="27" ry="18"/>
<text text-anchor="middle" x="43" y="-141.3" font-family="Times,serif" font-size="14.00">beta</text>
</g>
<!-- beta&#45;&gt;y -->
<g id="edge2" class="edge">
<title>beta&#45;&gt;y</title>
<path fill="none" stroke="black" d="M43.99,-127.01C44.68,-115.19 45.61,-99.17 46.4,-85.54"/>
<polygon fill="black" stroke="black" points="49.91,-85.44 47,-75.25 42.92,-85.03 49.91,-85.44"/>
</g>
<!-- mu -->
<g id="node3" class="node">
<title>mu</title>
<ellipse fill="grey" stroke="black" cx="120" cy="-57" rx="27" ry="18"/>
<text text-anchor="middle" x="120" y="-53.3" font-family="Times,serif" font-size="14.00">mu</text>
</g>
<!-- distribution_description_node -->
<g id="node5" class="node">
<title>distribution_description_node</title>
<text text-anchor="start" x="178.5" y="-163.8" font-family="Times,serif" font-size="14.00">sigma ~ HalfNormal</text>
<text text-anchor="start" x="178.5" y="-148.8" font-family="Times,serif" font-size="14.00">beta ~ Normal</text>
<text text-anchor="start" x="178.5" y="-133.8" font-family="Times,serif" font-size="14.00">mu ~ Delta</text>
<text text-anchor="start" x="178.5" y="-118.8" font-family="Times,serif" font-size="14.00">y ~ Normal</text>
</g>
</g>
</svg>
