<?xml version="1.0" encoding="UTF-8" standalone="no"?>
<!DOCTYPE svg PUBLIC "-//W3C//DTD SVG 1.1//EN"
 "http://www.w3.org/Graphics/SVG/1.1/DTD/svg11.dtd">
<!-- Generated by graphviz version 6.0.1 (0)
 -->
<!-- Pages: 1 -->
<svg width="294pt" height="172pt"
 viewBox="0.00 0.00 293.50 172.00" xmlns="http://www.w3.org/2000/svg" xmlns:xlink="http://www.w3.org/1999/xlink">
<g id="graph0" class="graph" transform="scale(1 1) rotate(0) translate(4 168)">
<polygon fill="white" stroke="none" points="-4,4 -4,-168 289.5,-168 289.5,4 -4,4"/>
<g id="clust1" class="cluster">
<title>cluster_plate</title>
<polygon fill="none" stroke="black" points="30,-8 30,-83 100,-83 100,-8 30,-8"/>
<text text-anchor="middle" x="78.5" y="-15.8" font-family="Times,serif" font-size="14.00">plate</text>
</g>
<!-- beta -->
<g id="node1" class="node">
<title>beta</title>
<ellipse fill="white" stroke="black" cx="27" cy="-137.5" rx="27" ry="18"/>
<text text-anchor="middle" x="27" y="-133.8" font-family="Times,serif" font-size="14.00">beta</text>
</g>
<!-- y -->
<g id="node3" class="node">
<title>y</title>
<ellipse fill="grey" stroke="black" cx="65" cy="-57" rx="27" ry="18"/>
<text text-anchor="middle" x="65" y="-53.3" font-family="Times,serif" font-size="14.00">y</text>
</g>
<!-- beta&#45;&gt;y -->
<g id="edge2" class="edge">
<title>beta&#45;&gt;y</title>
<path fill="none" stroke="black" d="M34.87,-120.23C40.02,-109.6 46.85,-95.5 52.7,-83.41"/>
<polygon fill="black" stroke="black" points="55.93,-84.77 57.14,-74.24 49.63,-81.72 55.93,-84.77"/>
</g>
<!-- sigma -->
<g id="node2" class="node">
<title>sigma</title>
<ellipse fill="white" stroke="black" cx="104" cy="-137.5" rx="32.49" ry="18"/>
<text text-anchor="middle" x="104" y="-133.8" font-family="Times,serif" font-size="14.00">sigma</text>
</g>
<!-- sigma&#45;&gt;y -->
<g id="edge1" class="edge">
<title>sigma&#45;&gt;y</title>
<path fill="none" stroke="black" d="M95.73,-119.85C90.47,-109.27 83.56,-95.36 77.63,-83.41"/>
<polygon fill="black" stroke="black" points="80.71,-81.75 73.13,-74.35 74.44,-84.87 80.71,-81.75"/>
</g>
<!-- distribution_description_node -->
<g id="node4" class="node">
<title>distribution_description_node</title>
<text text-anchor="start" x="162.5" y="-148.8" font-family="Times,serif" font-size="14.00">beta ~ Normal</text>
<text text-anchor="start" x="162.5" y="-133.8" font-family="Times,serif" font-size="14.00">sigma ~ HalfNormal</text>
<text text-anchor="start" x="162.5" y="-118.8" font-family="Times,serif" font-size="14.00">y ~ Normal</text>
</g>
</g>
</svg>
